<?xml version="1.0" standalone="no"?>
<!DOCTYPE svg PUBLIC "-//W3C//DTD SVG 20010904//EN"
 "http://www.w3.org/TR/2001/REC-SVG-20010904/DTD/svg10.dtd">
<svg version="1.0" xmlns="http://www.w3.org/2000/svg"
 width="377.000000pt" height="442.000000pt" viewBox="0 0 377.000000 442.000000"
 preserveAspectRatio="xMidYMid meet">

<g transform="translate(0.000000,442.000000) scale(0.100000,-0.100000)"
fill="#000000" stroke="none">
<path d="M2705 4320 c-346 -54 -615 -296 -706 -635 -17 -62 -22 -109 -22 -210
-1 -139 13 -217 57 -326 l23 -58 -249 -166 -250 -166 -56 53 c-106 101 -231
170 -377 209 -114 31 -316 31 -430 0 -307 -82 -533 -308 -616 -616 -31 -114
-31 -316 0 -430 83 -307 309 -534 616 -616 114 -31 316 -31 430 0 146 39 271
108 377 209 l56 53 250 -166 249 -166 -23 -58 c-44 -109 -58 -187 -57 -326 0
-156 21 -245 87 -380 108 -217 312 -383 551 -446 114 -31 317 -31 430 0 91 24
202 74 272 122 63 43 162 137 179 171 46 88 -40 183 -135 150 -29 -10 -29 -10
-51 51 -44 120 -138 227 -247 280 l-42 20 39 44 c95 108 94 269 -3 379 -58 66
-122 94 -217 94 -95 0 -148 -23 -212 -91 -59 -63 -82 -127 -76 -212 5 -73 28
-126 77 -177 l36 -38 -32 -11 c-52 -19 -145 -95 -189 -154 -35 -48 -52 -81
-93 -191 -6 -15 -14 -8 -49 45 -192 295 -110 688 183 879 201 131 463 136 671
14 145 -85 272 -268 299 -434 5 -31 18 -55 40 -77 29 -29 40 -33 83 -33 44 0
54 4 76 31 32 38 33 77 6 185 -74 294 -315 536 -615 615 -115 31 -318 31 -430
0 -146 -39 -271 -109 -377 -209 l-56 -53 -250 166 -250 167 19 44 c44 99 62
193 62 334 0 141 -17 233 -62 334 l-19 44 250 167 249 166 60 -55 c76 -71 132
-109 222 -151 123 -59 213 -78 367 -78 107 0 152 5 215 22 307 82 534 310 616
616 31 114 31 317 0 430 -83 308 -314 538 -616 615 -93 24 -254 33 -340 20z
m280 -236 c199 -47 385 -221 449 -421 24 -72 34 -180 25 -264 -28 -256 -221
-478 -474 -545 -79 -20 -233 -20 -310 1 -222 59 -404 241 -460 460 -20 77 -20
233 0 310 27 107 83 203 165 286 166 168 374 228 605 173z m-1920 -1280 c199
-47 385 -221 449 -421 24 -72 34 -180 25 -264 -28 -256 -221 -478 -474 -545
-79 -20 -233 -20 -310 1 -89 24 -196 80 -256 135 l-54 49 44 1 c24 0 100 16
170 37 l126 36 298 296 297 296 0 60 0 60 -77 77 c-76 77 -78 78 -128 78 l-51
0 -225 -227 c-123 -126 -260 -265 -303 -310 l-78 -83 -39 -127 c-21 -71 -39
-141 -39 -158 l-1 -30 -29 35 c-40 48 -97 163 -115 235 -20 77 -20 233 0 310
27 107 83 203 165 286 166 168 374 228 605 173z m199 -234 c86 -88 85 -82 20
-152 l-41 -45 -91 87 -91 86 52 52 c28 29 57 52 63 52 6 0 45 -36 88 -80z
m-209 -100 l29 -31 -199 -199 -199 -199 -18 29 c-10 17 -26 30 -35 30 -11 0
61 79 182 200 110 110 202 200 206 200 3 0 18 -14 34 -30z m110 -110 l31 -30
-195 -195 c-189 -187 -196 -193 -213 -175 -10 10 -27 22 -39 25 -19 6 2 30
177 206 109 109 201 199 203 199 3 0 19 -14 36 -30z m-470 -417 c25 -12 35
-23 35 -39 0 -27 -3 -29 -52 -38 -34 -6 -42 -3 -83 35 -49 45 -50 47 -35 101
16 56 48 56 78 0 14 -27 35 -49 57 -59z m-126 -100 c2 -1 -9 -7 -24 -13 -34
-13 -38 -10 -29 24 6 26 7 27 28 9 11 -10 23 -19 25 -20z m2348 -554 c66 -25
122 -109 123 -184 0 -53 -35 -121 -83 -159 -29 -23 -50 -31 -96 -34 -106 -8
-185 48 -212 150 -23 85 22 179 106 222 35 18 121 21 162 5z m98 -514 c116
-58 202 -171 223 -293 l10 -54 -73 -47 c-207 -135 -483 -137 -684 -5 l-54 36
6 57 c10 115 99 241 209 297 80 41 95 44 203 41 89 -2 107 -6 160 -32z" style="fill: #4f46e5;"/>
<path d="M2465 3835 c-51 -18 -91 -62 -105 -116 -7 -26 -10 -121 -8 -263 3
-200 5 -224 23 -255 50 -85 106 -94 520 -89 323 4 331 5 382 60 39 42 43 71
43 312 0 221 -1 234 -22 276 -16 30 -36 50 -63 64 -38 20 -59 21 -385 23 -279
2 -353 0 -385 -12z m737 -74 c45 -23 53 -65 53 -276 0 -209 -8 -254 -53 -283
-23 -15 -62 -17 -367 -17 -388 0 -385 -1 -406 77 -14 54 -14 381 0 435 13 47
28 62 74 74 17 4 176 7 352 6 251 -2 326 -5 347 -16z" style="fill: #4f46e5;"/>
<path d="M2709 3623 c-6 -16 -9 -81 -7 -151 4 -171 9 -173 185 -78 113 61 118
65 118 96 0 31 -5 35 -115 96 -129 72 -165 79 -181 37z m139 -96 c70 -38 70
-38 -15 -81 l-53 -26 0 70 c0 38 1 70 3 70 2 0 31 -15 65 -33z" style="fill: #4f46e5;"/>
</g>
</svg>
